<svg version="1.1" xmlns="http://www.w3.org/2000/svg" viewBox="0 0 80 320">
	<view id="smiley-happy" viewBox="0 0 80 80" />
	<view id="smiley-sad" viewBox="0 80 80 80" />
	<view id="smiley-angry" viewBox="0 160 80 80" />
	<view id="smiley-speechless" viewBox="0 240 80 80" />

	<!-- Smiley Happy -->
	<g>
		<path fill="#64B145" d="M68.3,11.7a40,40,0,1,0,0,56.6,40.1,40.1,0,0,0,0-56.6h0ZM63.9,63.9a33.8,33.8,0,1,1,0-47.9,33.9,33.9,0,0,1,0,47.9h0ZM25.1,29.2a4.7,4.7,0,1,1,4.7,4.7,4.7,4.7,0,0,1-4.7-4.7h0Zm21.2,0A4.7,4.7,0,1,1,51,33.8a4.7,4.7,0,0,1-4.7-4.7h0ZM57.3,48.3a18.7,18.7,0,0,1-17.3,11A18.5,18.5,0,0,1,22.7,48.3a2.3,2.3,0,0,1,1.2-3l0.9-.2a2.3,2.3,0,0,1,2.1,1.4,14,14,0,0,0,13.2,8.3,14.2,14.2,0,0,0,13.1-8.3,2.3,2.3,0,1,1,4.2,1.8h0Z"/>
	</g>

	<!-- Smiley Sad -->
	<g>
	    <path fill="#4A70A7" d="M68.3,91.7a40,40,0,1,0,0,56.6,40.1,40.1,0,0,0,0-56.6h0Zm-4.4,52.2a33.8,33.8,0,1,1,0-47.9,33.9,33.9,0,0,1,0,47.9h0Zm-5.8-8.1a2.3,2.3,0,0,1-4.2,1.8,14.2,14.2,0,0,0-13.1-8.3,14,14,0,0,0-13.2,8.3,2.3,2.3,0,0,1-2.1,1.4l-0.9-.2a2.3,2.3,0,0,1-1.2-3,18.5,18.5,0,0,1,17.4-11.1,18.7,18.7,0,0,1,17.3,11h0Zm-33-26.6a4.7,4.7,0,1,1,4.7,4.7,4.7,4.7,0,0,1-4.7-4.7h0Zm21.2,0a4.7,4.7,0,1,1,4.7,4.7,4.7,4.7,0,0,1-4.7-4.7h0Z"/>
	</g>

	<!-- Smiley Angry -->
	<g>
	    <path fill="#AA2826" d="M69.1,171.7a40,40,0,1,0,0,56.6,40.1,40.1,0,0,0,0-56.6h0Zm-4.4,52.2a33.8,33.8,0,1,1,0-47.9,33.9,33.9,0,0,1,0,47.9h0Zm-6.9-10.4a2.6,2.6,0,0,1-2.6,2.6H26.3a2.6,2.6,0,1,1,0-5.2H55.2a2.6,2.6,0,0,1,2.6,2.6h0ZM26.1,191.2l-3.9-3.9a2.4,2.4,0,0,1,3.4-3.4l7.1,7.1h0a4.7,4.7,0,1,1-6.6.1h0Zm33.3-7.3a2.4,2.4,0,0,1,0,3.4l-3.9,3.9a4.7,4.7,0,1,1-6.6-.1h0l7.1-7.1a2.4,2.4,0,0,1,3.4,0h0Z"/>
	</g>

	<!-- Smiley Speechless -->
	<g>
	    <path fill="#F2A341" d="M69,251.7a40,40,0,1,0,0,56.5A40,40,0,0,0,69,251.7Zm-4.4,52.2a33.8,33.8,0,1,1,0-47.8A33.8,33.8,0,0,1,64.7,303.9ZM25.4,269.1a4.7,4.7,0,1,1,4.7,4.7A4.7,4.7,0,0,1,25.4,269.1Zm21.3,0a4.7,4.7,0,1,1,4.7,4.7A4.7,4.7,0,0,1,46.7,269.1Zm11.1,24.4a2.6,2.6,0,0,1-2.6,2.6H26.3a2.6,2.6,0,0,1,0-5.2H55.2A2.6,2.6,0,0,1,57.8,293.5Z"/>
	</g>
</svg>